<svg width="23" height="23" viewBox="0 0 23 23" fill="none" xmlns="http://www.w3.org/2000/svg">
<path d="M22.6108 7.72099C21.842 4.89582 20.0192 2.53899 17.4779 1.08464C16.853 0.727191 16.0537 0.944607 15.6963 1.56948C15.3387 2.19435 15.5561 2.99365 16.181 3.35127C18.1168 4.45905 19.5055 6.25436 20.0909 8.40658C20.1436 8.59943 20.1897 8.79631 20.2283 8.99144C20.2569 9.13674 20.2822 9.28466 20.3033 9.43154C20.3387 9.67843 20.5675 9.84987 20.8142 9.81443C21.0611 9.77898 21.2326 9.55016 21.1971 9.30344C21.174 9.14095 21.1459 8.97688 21.1141 8.81614C21.0715 8.6003 21.0204 8.38289 20.9625 8.16951C20.3136 5.78461 18.7749 3.79505 16.6295 2.56742C16.437 2.45722 16.3699 2.21067 16.4801 2.018C16.5903 1.82532 16.8367 1.75829 17.0294 1.86849C19.3613 3.20299 21.0339 5.36557 21.7394 7.95806C22.4446 10.5506 22.0982 13.2625 20.7637 15.5945C19.8886 17.1236 18.6257 18.3991 17.1115 19.2832C16.958 19.3728 16.8713 19.5444 16.8902 19.7213C16.9092 19.8982 17.0303 20.0474 17.1992 20.1025L18.2795 20.4545C18.4904 20.5232 18.6062 20.7508 18.5374 20.9619C18.4686 21.1729 18.2409 21.2887 18.03 21.2199L14.8508 20.184C14.847 20.1826 14.8431 20.1812 14.8403 20.1802C14.8389 20.1797 14.8373 20.1793 14.8359 20.1788C14.8317 20.1772 14.8275 20.1755 14.8231 20.1739L14.7794 20.1546C14.7743 20.1518 14.7694 20.1488 14.7636 20.1454L14.7522 20.139C14.7464 20.1353 14.7408 20.1312 14.7357 20.1275L14.7247 20.12C14.7199 20.1163 14.7152 20.1123 14.7099 20.1079L14.7005 20.1002C14.6959 20.096 14.6913 20.0916 14.6875 20.0877L14.678 20.0789C14.674 20.0744 14.6699 20.0698 14.6659 20.0653L14.6573 20.0558C14.6538 20.0514 14.6505 20.0468 14.6466 20.0417L14.6403 20.0335L14.6399 20.0331C14.6371 20.0293 14.6345 20.0251 14.6301 20.0184L14.624 20.0089L14.5745 19.8889C14.5729 19.8819 14.5717 19.8747 14.5703 19.8668C14.5696 19.8631 14.569 19.8594 14.5682 19.8557C14.5653 19.8363 14.5639 19.8171 14.5639 19.7985C14.5639 19.7754 14.5666 19.7497 14.5722 19.7217C14.5722 19.7217 14.5729 19.7173 14.5729 19.7171C14.5738 19.7129 14.5745 19.7087 14.5753 19.705C14.5764 19.7011 14.5776 19.6971 14.5789 19.6925C14.5811 19.6845 14.5832 19.6764 14.5862 19.6678C14.5871 19.665 14.588 19.662 14.589 19.659L15.68 16.5101C15.7151 16.4085 15.7877 16.3267 15.8844 16.2797C15.9813 16.2328 16.0904 16.2263 16.192 16.2616C16.2936 16.2967 16.3754 16.3694 16.4224 16.466C16.4693 16.5629 16.4758 16.6721 16.4405 16.7737L15.9853 18.088C15.9237 18.2657 15.9788 18.4631 16.1238 18.5834C16.2687 18.7036 16.473 18.7213 16.6363 18.6276C18.0607 17.8123 19.2464 16.6252 20.065 15.1947C20.4673 14.4914 20.7762 13.7423 20.9823 12.9683C21.0466 12.7272 20.9032 12.4799 20.6623 12.4157C20.4213 12.3513 20.1739 12.4947 20.1097 12.7358C19.9235 13.4342 19.6447 14.1106 19.2811 14.7462C18.7645 15.6487 18.0865 16.4436 17.2861 17.0916L17.294 17.0693C17.4081 16.7398 17.387 16.3855 17.2347 16.0718C17.0824 15.758 16.8171 15.5223 16.4875 15.4081C16.1581 15.294 15.8039 15.3149 15.4901 15.4672C15.1764 15.6195 14.9407 15.885 14.8265 16.2146L13.732 19.3739C13.7308 19.3774 13.7296 19.3814 13.7283 19.3853C13.721 19.4074 13.7145 19.4295 13.7087 19.4506C13.7057 19.4602 13.7031 19.47 13.7002 19.4806C13.695 19.502 13.6904 19.5237 13.6857 19.5488C13.669 19.6332 13.6608 19.7173 13.6608 19.7985C13.6608 19.8671 13.6664 19.937 13.6773 20.0049C13.6787 20.013 13.6801 20.0209 13.6818 20.0289C13.6862 20.054 13.6911 20.0791 13.6973 20.1039C13.7001 20.1161 13.7034 20.1282 13.7078 20.1432L13.7094 20.1488C13.7139 20.1658 13.7187 20.1828 13.7243 20.1997C13.7289 20.2139 13.7338 20.2277 13.7389 20.2414L13.7427 20.2518C13.7478 20.2658 13.7531 20.2799 13.7585 20.2932C13.7643 20.3074 13.7706 20.3213 13.7769 20.3353L13.7824 20.3471C13.788 20.3595 13.7938 20.372 13.8003 20.385C13.8068 20.398 13.8136 20.4106 13.8208 20.4232L13.8261 20.4331C13.8334 20.4464 13.841 20.4597 13.8491 20.4734C13.8557 20.4843 13.8627 20.495 13.8698 20.5057L13.8741 20.5127C13.8841 20.5278 13.894 20.5429 13.9047 20.5578C13.9115 20.5673 13.9185 20.5768 13.9257 20.5861L13.928 20.589C13.9407 20.6057 13.9535 20.6222 13.967 20.638C13.9736 20.6461 13.9805 20.6538 13.9896 20.664C14.0045 20.6808 14.0194 20.6973 14.0352 20.7135C14.0419 20.7203 14.0487 20.7268 14.058 20.7356C14.0747 20.7517 14.0914 20.7677 14.1088 20.7828C14.1161 20.7891 14.1237 20.7954 14.1328 20.8028C14.1507 20.8177 14.1689 20.8323 14.1875 20.8461C14.1958 20.8524 14.2044 20.8584 14.2163 20.8667C14.2342 20.8793 14.2525 20.8917 14.2711 20.9033C14.2811 20.9096 14.2913 20.9156 14.3016 20.9216L14.3081 20.9254C14.3249 20.9353 14.3418 20.9449 14.3597 20.9544C14.372 20.9609 14.3846 20.967 14.3972 20.973L14.4083 20.9783C14.4225 20.9851 14.4369 20.9918 14.4525 20.9984C14.4674 21.0048 14.4825 21.0107 14.4976 21.0165L14.5013 21.0179C14.5138 21.0228 14.5262 21.0277 14.5401 21.0327C14.5431 21.0335 14.5464 21.0348 14.5497 21.0358C14.5536 21.037 14.5576 21.0384 14.562 21.0398L17.7499 22.0787C17.8838 22.1224 18.0198 22.1431 18.1535 22.1431C18.7034 22.1431 19.2164 21.7923 19.3959 21.2416C19.6189 20.5571 19.2434 19.8189 18.559 19.5958L18.3807 19.5378C19.6712 18.6209 20.7551 17.4273 21.5472 16.0431C23.0019 13.5015 23.3794 10.5462 22.6108 7.72099Z" fill="#5a33e9"/>
<path d="M6.81885 18.7918C4.88281 17.6841 3.49427 15.8888 2.9087 13.7365C2.32314 11.5843 2.61074 9.33278 3.7187 7.39692C4.23513 6.49462 4.91317 5.69953 5.71352 5.0515L5.7058 5.07396C5.6579 5.21223 5.6335 5.35595 5.6335 5.50124C5.6335 6.05715 5.98656 6.55305 6.51212 6.73502C7.19226 6.97051 7.93751 6.60885 8.17318 5.92871L9.26587 2.77451C9.2678 2.76925 9.26956 2.76346 9.27149 2.75767C9.28324 2.7224 9.2936 2.68642 9.30202 2.6508C9.30483 2.63992 9.30693 2.62904 9.30921 2.61781C9.31501 2.59044 9.32009 2.56324 9.32413 2.53586C9.32659 2.51902 9.32869 2.50217 9.33062 2.48515C9.3329 2.46357 9.33466 2.44198 9.33589 2.42075C9.33676 2.40513 9.33764 2.38952 9.33799 2.37337C9.33852 2.3646 9.33869 2.35547 9.33869 2.34459C9.33869 2.33038 9.33817 2.31634 9.33729 2.30143L9.33712 2.29476C9.33659 2.27826 9.33606 2.26159 9.33483 2.24545C9.33238 2.21264 9.32834 2.17894 9.32325 2.14525C9.32132 2.13262 9.31887 2.12016 9.31658 2.1077L9.31588 2.10472C9.31079 2.07682 9.30483 2.04892 9.29781 2.02137C9.29483 2.00978 9.29149 1.99838 9.28816 1.9868L9.28675 1.98171C9.27956 1.95714 9.27201 1.93293 9.26359 1.90941C9.25885 1.89608 9.25394 1.88291 9.24903 1.87028C9.23955 1.84589 9.2292 1.82185 9.21814 1.79798C9.21814 1.79781 9.21604 1.79342 9.21604 1.79325C9.21165 1.78342 9.20709 1.77377 9.202 1.76342C9.18884 1.73692 9.17427 1.71025 9.15883 1.68392C9.15497 1.67673 9.15076 1.66971 9.14637 1.66234C9.1276 1.63181 9.10707 1.60145 9.08425 1.57039C9.07653 1.55986 9.06828 1.54951 9.06021 1.53933L9.05705 1.53565C9.04249 1.51705 9.02775 1.49897 9.01231 1.4816C9.00125 1.46914 8.98985 1.45686 8.97791 1.44405C8.96282 1.42825 8.94738 1.41299 8.93159 1.39807L8.92825 1.39474C8.91702 1.38421 8.90597 1.37368 8.89421 1.3635C8.87438 1.34596 8.85368 1.32929 8.83227 1.31262L8.82788 1.30928C8.81753 1.30121 8.80718 1.29314 8.79682 1.28577C8.76945 1.26594 8.74049 1.24681 8.71014 1.22839C8.69961 1.22189 8.6889 1.21593 8.6782 1.20996L8.67451 1.20803C8.65118 1.19487 8.62766 1.18241 8.60292 1.17048C8.59046 1.16434 8.57765 1.15837 8.56467 1.15258C8.54098 1.14205 8.51694 1.13223 8.4922 1.12293C8.48184 1.11854 8.47131 1.1145 8.46078 1.11099C8.45763 1.10976 8.45394 1.10854 8.45026 1.10748C8.44622 1.1059 8.44201 1.1045 8.43762 1.1031L5.24974 0.0642741C4.5652 -0.158581 3.8268 0.216763 3.60377 0.901298C3.49567 1.23295 3.52322 1.58671 3.68133 1.89748C3.83943 2.20842 4.10914 2.43918 4.44061 2.54727L4.61872 2.60535C3.32827 3.52222 2.24435 4.71581 1.45225 6.09997C0.502214 7.76033 0 9.63723 0 11.5276C0 12.4994 0.130906 13.4732 0.389032 14.4221C1.15762 17.2473 2.98047 19.6041 5.5219 21.0583C5.72194 21.1729 5.94375 21.2313 6.16818 21.2313C6.28312 21.2313 6.39893 21.2161 6.51299 21.185C6.84956 21.0934 7.13032 20.8763 7.30352 20.5736C7.66096 19.9489 7.44355 19.1496 6.81885 18.7918ZM6.51966 20.1251C6.46632 20.2185 6.37963 20.2853 6.27592 20.3136C6.17222 20.3418 6.06377 20.328 5.97042 20.2745C3.63851 18.9401 1.96569 16.7774 1.26045 14.1849C1.02338 13.3133 0.903179 12.4192 0.903179 11.5276C0.903003 9.79428 1.36398 8.0725 2.2361 6.54866C3.1112 5.01938 4.37411 3.74384 5.8883 2.85997C6.04184 2.7703 6.12852 2.59868 6.10957 2.4218C6.09062 2.24492 5.96954 2.09577 5.80038 2.04067L4.72032 1.68866C4.61802 1.65532 4.53502 1.58425 4.48624 1.48844C4.43745 1.39263 4.42903 1.28349 4.46237 1.18136C4.51765 1.0115 4.67575 0.903404 4.84526 0.903404C4.8865 0.903404 4.92844 0.909896 4.96968 0.923233L8.14914 1.95925C8.15282 1.96065 8.15668 1.96205 8.16002 1.96311C8.16388 1.96469 8.16791 1.96609 8.17177 1.96767C8.18037 1.97083 8.1888 1.97416 8.19704 1.97785L8.20898 1.98329C8.21635 1.9868 8.22336 1.99066 8.23126 1.99504L8.2446 2.00259C8.25267 2.0075 8.26039 2.01259 8.26618 2.0168L8.27934 2.02698C8.28566 2.03207 8.29215 2.03698 8.29742 2.04155L8.30952 2.05313C8.31461 2.05769 8.31935 2.06243 8.32374 2.06699C8.32725 2.07067 8.33093 2.07454 8.33462 2.07875C8.33935 2.08419 8.34392 2.0898 8.3483 2.09559L8.35831 2.10805C8.36392 2.1156 8.36866 2.12244 8.37269 2.12876C8.37463 2.13244 8.37673 2.13595 8.37884 2.13946C8.38393 2.14824 8.38884 2.15701 8.3934 2.16666L8.39796 2.17631C8.4013 2.18368 8.40463 2.19105 8.40779 2.1993L8.41218 2.21088C8.41481 2.21825 8.41691 2.2258 8.4192 2.23317L8.42288 2.24563C8.42499 2.2537 8.42657 2.26194 8.4285 2.27212L8.4306 2.28318C8.43218 2.29335 8.43341 2.30371 8.43411 2.31108L8.43534 2.34512C8.43517 2.34688 8.43517 2.34863 8.43517 2.35021C8.43517 2.35618 8.43464 2.36197 8.43429 2.36863C8.43394 2.37513 8.43341 2.38162 8.43271 2.38811C8.43218 2.3932 8.43166 2.39829 8.43078 2.40373C8.42955 2.4125 8.4278 2.42093 8.42622 2.42812L8.42323 2.44321C8.4206 2.45374 8.41744 2.46427 8.41428 2.47322C8.41305 2.47708 8.41165 2.48111 8.41042 2.48515L7.31984 5.6332C7.24719 5.8429 7.01749 5.9545 6.80762 5.88185C6.64565 5.8257 6.53668 5.67286 6.53668 5.5016C6.53668 5.45702 6.54423 5.41263 6.55914 5.36981L7.01451 4.05549C7.0761 3.87756 7.02082 3.68015 6.87588 3.55995C6.73111 3.43974 6.52668 3.4222 6.36349 3.51573C4.93897 4.33117 3.75345 5.51809 2.93485 6.94858C1.70721 9.09395 1.38837 11.5889 2.03728 13.9738C2.6862 16.3587 4.22495 18.3482 6.37016 19.5759C6.56283 19.6861 6.62986 19.9324 6.51966 20.1251Z" fill="#5a33e9"/>
<path d="M11.6354 12.6064C13.1055 12.6064 14.3233 12.1825 15.2607 11.343C16.972 9.81036 17.099 7.46143 17.1036 7.36211C17.1097 7.22963 17.0573 7.10118 16.9602 7.01081C16.8632 6.92044 16.7314 6.87745 16.5998 6.89289C13.4491 7.26349 12.0093 8.65871 11.3564 9.76368C10.9186 10.5045 10.7676 11.2135 10.7171 11.6669C10.0619 10.8448 8.85512 9.97601 6.64008 9.71543C6.50847 9.69981 6.37669 9.74315 6.27965 9.83352C6.18261 9.92389 6.13015 10.0523 6.13629 10.1847C6.14015 10.2682 6.24684 12.2428 7.68662 13.5322C8.46697 14.2311 9.47631 14.5877 10.6913 14.5967V17.0602C10.6913 17.3097 10.8935 17.5119 11.1428 17.5119C11.3923 17.5119 11.5945 17.3097 11.5945 17.0602V14.1415C11.5952 14.1185 11.5961 14.0743 11.5945 14.012V12.6059C11.608 12.6059 11.6219 12.6064 11.6354 12.6064ZM12.1339 10.2233C12.8618 8.99141 14.2035 8.20212 16.1269 7.87292C15.994 8.57448 15.6312 9.7986 14.6581 10.6702C13.8917 11.3567 12.8751 11.7032 11.6313 11.7032C11.6284 11.7032 11.6255 11.7032 11.6227 11.7032C11.6698 11.3451 11.7965 10.7941 12.1339 10.2233ZM8.29465 12.8645C7.55554 12.2058 7.24846 11.2849 7.12282 10.7013C9.94062 11.2287 10.5379 12.9037 10.6615 13.6935C9.69145 13.6791 8.89671 13.4011 8.29465 12.8645Z" fill="#5a33e9"/>
<path d="M20.5541 11.4662C20.6301 11.5155 20.7154 11.5392 20.7998 11.5392C20.9475 11.5392 21.0923 11.4667 21.1788 11.3335C21.3146 11.1243 21.2553 10.8446 21.0462 10.7088L21.0337 10.7007C20.8245 10.5647 20.5448 10.6242 20.409 10.8334C20.2732 11.0426 20.3325 11.3223 20.5417 11.4581L20.5541 11.4662Z" fill="#5a33e9"/>
</svg>
